# xmcd
#
# Track frame offsets: 
#        150
#        12920
#        41451
#        55668
#        70754
#        87714
#        110623
#        123692
#        142132
#        156638
#        177642
#        196398
#        206920
#        222038
#        240685
#        254622
#
# Disc length: 3534 seconds
#
# Revision: 1
# Processed by: cddbd v1.5.2PL0 Copyright (c) Steve Scherf et al.
# Submitted via: ExactAudioCopyFreeDBPlugin 1.0
#
DISCID=000dcc10
DTITLE=Various / Late Night Moods CD2
DYEAR=2004
DGENRE=Jazz
TTITLE0=Julie London / Cry Me A River
TTITLE1=Al Green / How Can You Mend A Broken Heart
TTITLE2=Billie Holiday / Trav'lin' Light
TTITLE3=Bobby Womack / California Dreamin'
TTITLE4=Lou Rawls / The Girl From Ipanema
TTITLE5=Minnie Riperton & Jose Feliciano / Light My Fire
TTITLE6=Jose Feliciano / Don't Let The Sun Catch You Crying
TTITLE7=Freddie Jackson / Rock Me Tonight
TTITLE8=Candi Staton / How Can I Put Out The Flames
TTITLE9=Minnie Riperton / Inside My Love
TTITLE10=Charlie Hunter Feat. Norah Jones / More Than This
TTITLE11=Peggy Lee / A Taste Of Honey
TTITLE12=Tony Bennett & Kd Lang / What A Wonderful World
TTITLE13=Cassandra Wilson / Time After Time
TTITLE14=George Shearing Quintet / All Night Long
TTITLE15=Chet Baker / My Funny Valentine
EXTD=YEAR: 2004
EXTT0=
EXTT1=
EXTT2=
EXTT3=
EXTT4=
EXTT5=
EXTT6=
EXTT7=
EXTT8=
EXTT9=
EXTT10=
EXTT11=
EXTT12=
EXTT13=
EXTT14=
EXTT15=
PLAYORDER=
